<?xml version="1.0" standalone="no"?>
<!DOCTYPE svg PUBLIC "-//W3C//DTD SVG 20010904//EN"
 "http://www.w3.org/TR/2001/REC-SVG-20010904/DTD/svg10.dtd">
<svg version="1.0" xmlns="http://www.w3.org/2000/svg"
 width="150.000000pt" height="150.000000pt" viewBox="0 0 150.000000 150.000000"
 preserveAspectRatio="xMidYMid meet">
<metadata>
Created by potrace 1.11, written by Peter Selinger 2001-2013
</metadata>
<g transform="translate(0.000000,150.000000) scale(0.100000,-0.100000)"
fill="#000000" stroke="none">
<path d="M645 1276 c-88 -43 -121 -83 -162 -198 -25 -67 -27 -86 -27 -223 0
-135 3 -158 27 -230 30 -91 98 -211 116 -207 7 1 10 -1 7 -6 -5 -9 42 -57 84
-85 13 -10 44 -17 68 -17 49 0 106 25 96 42 -4 6 -3 8 3 5 10 -6 52 31 52 46
-1 5 3 12 7 15 4 4 4 1 0 -5 -4 -7 -5 -13 -2 -13 12 0 66 91 60 102 -4 6 -3 8
3 5 12 -8 44 62 68 148 21 80 30 274 16 350 -13 70 -66 189 -81 180 -5 -3 -7
0 -4 8 6 16 -18 39 -37 35 -8 -2 -13 2 -12 9 3 16 -34 36 -49 27 -7 -4 -8 -3
-4 4 9 15 -56 32 -124 32 -38 0 -71 -8 -105 -24z m180 -156 c4 -6 14 -9 23 -8
9 2 17 -1 17 -7 0 -5 8 -27 18 -47 41 -86 47 -269 13 -382 -8 -27 -12 -54 -9
-59 3 -6 1 -7 -5 -3 -11 6 -28 -30 -23 -49 1 -5 -1 -7 -5 -2 -8 8 -46 -22 -40
-32 2 -3 -15 -7 -39 -9 -34 -2 -49 3 -72 22 -17 14 -34 22 -38 18 -5 -4 -5 -2
-2 4 3 6 -5 38 -19 72 -50 124 -52 319 -3 413 10 20 15 40 11 44 -4 3 0 5 8 3
8 -2 14 3 12 10 -1 8 1 11 6 8 4 -2 14 -1 22 5 20 12 117 11 125 -1z"/>
<path d="M398 1225 c-37 -29 -64 -56 -60 -60 4 -5 2 -5 -4 -2 -15 8 -56 -22
-48 -35 4 -7 2 -8 -4 -4 -7 4 -36 -12 -67 -35 -55 -42 -68 -56 -39 -45 9 3 12
2 9 -5 -4 -5 -15 -7 -24 -4 -11 3 -24 -2 -32 -11 -12 -15 -11 -16 11 -10 66
19 63 20 56 -7 -26 -105 -15 -341 26 -550 17 -90 25 -110 42 -117 12 -5 106
-34 210 -65 190 -56 246 -63 196 -25 -14 11 -31 18 -37 15 -7 -2 -12 -1 -10 3
4 13 -96 111 -107 105 -5 -3 -6 -1 -2 5 6 10 -38 85 -46 77 -2 -2 -4 4 -5 13
-1 9 -14 44 -28 77 -36 80 -55 186 -55 305 0 135 21 238 70 337 22 44 40 84
40 87 0 16 -31 0 -92 -49z m267 -993 c-3 -3 -11 0 -18 7 -9 10 -8 11 6 5 10
-3 15 -9 12 -12z"/>
<path d="M1036 1272 c-3 -5 13 -44 34 -88 74 -149 91 -400 40 -569 -45 -144
-150 -296 -247 -356 -21 -14 -31 -25 -25 -31 9 -9 418 104 433 119 12 14 48
217 60 338 10 109 7 228 -7 311 -4 23 -1 33 11 37 9 4 14 3 11 -2 -5 -8 45
-23 52 -17 5 5 -143 109 -155 109 -7 0 -10 4 -7 8 5 9 -37 35 -51 30 -5 -1 -7
0 -3 4 6 6 -124 115 -137 115 -2 0 -6 -4 -9 -8z m19 -12 c3 -5 1 -10 -4 -10
-6 0 -11 5 -11 10 0 6 2 10 4 10 3 0 8 -4 11 -10z m-180 -1020 c-3 -5 -11 -10
-16 -10 -6 0 -7 5 -4 10 3 6 11 10 16 10 6 0 7 -4 4 -10z"/>
</g>
</svg>
