<?xml version="1.0" standalone="no"?>
<!DOCTYPE svg PUBLIC "-//W3C//DTD SVG 20010904//EN"
 "http://www.w3.org/TR/2001/REC-SVG-20010904/DTD/svg10.dtd">
<svg version="1.0" xmlns="http://www.w3.org/2000/svg"
 width="125.000000pt" height="125.000000pt" viewBox="0 0 125.000000 125.000000"
 preserveAspectRatio="xMidYMid meet">
<metadata>
Created by potrace 1.11, written by Peter Selinger 2001-2013
</metadata>
<g transform="translate(0.000000,125.000000) scale(0.100000,-0.100000)"
fill="#000000" stroke="none">
<path d="M1213 1243 c21 -6 24 -53 2 -53 -13 0 -15 -72 -17 -567 l-3 -568
-240 -5 c-158 -3 -230 -8 -212 -14 33 -10 30 -16 -15 -26 -19 -5 87 -8 245 -9
l277 -1 0 625 0 625 -27 -1 c-17 -1 -21 -3 -10 -6z"/>
<path d="M108 1042 c-2 -57 1 -92 7 -92 6 0 9 30 7 76 l-4 76 70 -74 70 -73 4
88 c1 48 0 87 -4 87 -5 0 -8 -31 -8 -70 l0 -70 -69 73 -69 72 -4 -93z"/>
<path d="M395 1103 c11 -2 30 -6 42 -9 41 -8 48 -102 10 -126 -22 -14 -57 -8
-77 12 -20 20 -28 86 -12 106 4 5 -1 1 -10 -9 -26 -28 -23 -73 7 -102 51 -52
135 -17 135 56 0 52 -27 79 -77 78 -21 -1 -29 -3 -18 -6z"/>
<path d="M553 1103 c27 -4 27 -5 27 -79 0 -52 4 -74 13 -74 9 0 11 20 9 76
l-4 77 31 -5 c17 -2 31 -1 31 4 0 4 -30 7 -67 7 -38 -1 -56 -4 -40 -6z"/>
<path d="M733 1084 c-6 -16 -20 -53 -32 -81 -11 -29 -17 -53 -12 -53 5 0 12
14 16 30 6 25 11 30 37 30 24 0 32 -6 41 -30 6 -16 17 -30 23 -30 8 0 5 16
-10 48 -12 26 -29 63 -37 81 l-16 35 -10 -30z m26 -51 c1 -7 -8 -13 -18 -13
-18 0 -19 3 -9 32 10 28 12 30 19 12 4 -10 8 -25 8 -31z"/>
<path d="M875 1030 c0 -50 4 -80 11 -80 6 0 9 13 6 31 -3 20 0 34 9 40 10 6
11 9 2 9 -8 0 -13 14 -13 35 0 27 4 35 18 35 38 0 58 -50 26 -68 -13 -7 -11
-14 19 -45 19 -21 39 -37 45 -37 5 0 -6 16 -25 36 -27 26 -33 38 -24 47 16 16
14 64 -5 71 -9 3 -28 6 -42 6 l-27 0 0 -80z"/>
<path d="M1016 1102 c24 -15 54 -79 54 -114 0 -24 5 -38 13 -38 8 0 12 15 12
44 0 24 -3 42 -6 40 -3 -2 -16 15 -28 36 -12 22 -30 40 -39 40 -11 0 -13 -3
-6 -8z"/>
<path d="M1113 1080 c-6 -16 -10 -30 -9 -30 1 0 12 14 24 30 15 20 18 30 9 30
-7 0 -18 -13 -24 -30z"/>
<path d="M480 774 c-19 -7 -28 -13 -19 -13 9 -1 32 6 50 14 42 18 17 17 -31
-1z"/>
<path d="M735 776 c22 -9 49 -15 60 -15 11 1 5 5 -15 11 -64 17 -85 19 -45 4z"/>
<path d="M629 593 c-2 -56 -2 -56 -9 -18 l-7 40 -2 -37 c0 -20 4 -40 10 -44 8
-4 7 -9 -2 -15 -10 -6 -11 -9 -1 -9 6 0 12 -10 12 -22 -1 -22 -1 -23 -15 -4
-15 19 -15 19 -15 -1 0 -11 7 -24 16 -27 15 -6 15 -8 -1 -26 -10 -11 -24 -20
-31 -20 -17 0 -27 -17 -19 -30 4 -7 14 -3 25 10 9 11 26 20 36 20 18 -1 18 -1
0 -15 -17 -13 -18 -15 -3 -15 9 0 17 -4 17 -10 0 -13 43 3 48 18 2 7 -8 17
-22 24 -21 9 -26 18 -26 47 2 97 0 191 -5 191 -3 0 -6 -26 -6 -57z"/>
<path d="M380 510 c-17 -11 14 -20 65 -20 45 0 75 7 75 19 0 8 -126 10 -140 1z"/>
<path d="M730 510 c0 -4 7 -11 16 -14 26 -10 122 -7 129 4 3 6 3 10 -2 11 -83
6 -143 6 -143 -1z"/>
<path d="M190 220 c0 -65 3 -90 13 -90 9 0 11 23 9 90 -2 49 -8 90 -13 90 -5
0 -9 -40 -9 -90z"/>
<path d="M254 294 c19 -19 21 -45 4 -63 -11 -10 -10 -11 4 -6 36 14 29 85 -8
85 -14 0 -14 -2 0 -16z"/>
<path d="M357 283 c-4 -3 -7 -35 -7 -69 0 -68 12 -84 63 -84 40 0 57 29 57 98
0 34 -3 62 -7 62 -5 0 -6 -24 -5 -54 5 -68 -9 -96 -48 -96 -39 0 -53 28 -48
96 1 30 3 54 2 54 0 0 -4 -3 -7 -7z"/>
<path d="M550 208 l0 -78 33 0 c18 0 38 5 45 12 18 18 15 56 -5 67 -14 7 -15
12 -5 24 7 8 10 22 6 31 -10 25 -20 19 -19 -11 0 -21 -5 -28 -20 -28 -21 0
-27 19 -14 46 5 10 3 16 -7 16 -11 0 -14 -17 -14 -79z m70 -17 c14 -27 2 -51
-24 -51 -30 0 -33 5 -28 40 5 35 35 41 52 11z"/>
<path d="M715 282 c-5 -4 -10 -40 -10 -80 l0 -72 45 2 c37 1 39 2 13 5 -39 5
-47 26 -41 103 1 27 3 50 3 50 0 0 -4 -4 -10 -8z"/>
<path d="M850 210 c0 -47 4 -80 10 -80 6 0 10 33 10 80 0 47 -4 80 -10 80 -6
0 -10 -33 -10 -80z"/>
<path d="M991 286 c10 -9 79 -14 74 -5 -4 5 -22 9 -42 9 -20 0 -34 -2 -32 -4z"/>
<path d="M964 272 c-6 -4 -16 -17 -23 -30 -15 -29 1 -87 29 -102 22 -12 100
-13 100 -2 0 4 -17 6 -39 4 -32 -3 -42 1 -60 23 -25 33 -27 62 -5 93 16 23 16
26 -2 14z"/>
</g>
</svg>
